<svg width="81" height="81" viewBox="0 0 81 81" fill="none" xmlns="http://www.w3.org/2000/svg">
<path d="M58.8041 37.6523L30.9604 20.7246C28.4607 19.3324 25.3125 21.1201 25.3125 24.0469V56.9531C25.3125 59.8641 28.4449 61.6676 30.9604 60.2754L58.8041 44.2969C61.3986 42.8572 61.3986 39.1078 58.8041 37.6523ZM79.7344 40.5C79.7344 18.8262 62.1738 1.26562 40.5 1.26562C18.8262 1.26562 1.26562 18.8262 1.26562 40.5C1.26562 62.1738 18.8262 79.7344 40.5 79.7344C62.1738 79.7344 79.7344 62.1738 79.7344 40.5ZM8.85938 40.5C8.85938 23.0186 23.0186 8.85938 40.5 8.85938C57.9814 8.85938 72.1406 23.0186 72.1406 40.5C72.1406 57.9814 57.9814 72.1406 40.5 72.1406C23.0186 72.1406 8.85938 57.9814 8.85938 40.5Z" fill="#0788D1"/>
<mask id="mask0_20_14" style="mask-type:alpha" maskUnits="userSpaceOnUse" x="4" y="7" width="73" height="67">
<ellipse cx="40.5" cy="40.5" rx="36.3247" ry="32.9845" fill="#C4C4C4"/>
</mask>
<g mask="url(#mask0_20_14)">
</g>
</svg>
