<svg width="100" height="100" viewBox="0 0 100 100" fill="none" xmlns="http://www.w3.org/2000/svg">
<circle cx="50" cy="50" r="50" fill="#8E8C8A"/>
<path d="M67.87 32.06H32.13L29.438 36.538C28.6343 37.875 28.21 39.405 28.21 40.965V66.905C28.2101 69.745 30.512 72.047 33.353 72.047H66.653C69.493 72.047 71.795 69.745 71.796 66.905V40.965C71.796 39.405 71.3713 37.875 70.568 36.538L67.87 32.06Z" fill="#92D3F5"/>
<path d="M32.1599 23.95H67.7999V31.867H32.1599V23.95Z" fill="#D0CFCE"/>
<path d="M53.0475 61.9805V54.6348H60.3931V49.4633H53.0475V42.1177H47.876V49.4633H40.5303V54.6348H47.876V61.9805H53.0475Z" fill="#D22F27"/>
<path d="M47.876 42.1177V49.4634H40.5303V54.6348H47.876V61.9805H53.0475V54.6348H60.3931V49.4634H53.0475V42.1177H47.876Z" stroke="black" stroke-width="1.55269" stroke-linecap="round" stroke-linejoin="round"/>
<path d="M67.9001 32.04H32.1001L29.4041 36.525C28.5991 37.864 28.1741 39.397 28.1741 40.959V66.939C28.1742 69.784 30.4801 72.09 33.3251 72.09H66.6751C69.5201 72.09 71.8261 69.784 71.8261 66.939V40.959C71.8261 39.397 71.4007 37.864 70.5961 36.525L67.9001 32.04Z" stroke="black" stroke-width="1.766" stroke-linecap="round" stroke-linejoin="round"/>
<path d="M32.1401 23.91H67.8401V31.839H32.1401V23.91Z" stroke="black" stroke-width="1.766" stroke-linecap="round" stroke-linejoin="round"/>
<path d="M38.0601 23.91V31.84" stroke="black" stroke-width="1.766" stroke-linecap="round" stroke-linejoin="round"/>
<path d="M44.03 23.91V31.84" stroke="black" stroke-width="1.766" stroke-linecap="round" stroke-linejoin="round"/>
<path d="M50 23.91V31.84" stroke="black" stroke-width="1.766" stroke-linecap="round" stroke-linejoin="round"/>
<path d="M55.97 23.91V31.84" stroke="black" stroke-width="1.766" stroke-linecap="round" stroke-linejoin="round"/>
<path d="M61.9402 23.91V31.84" stroke="black" stroke-width="1.766" stroke-linecap="round" stroke-linejoin="round"/>
</svg>
