<svg width="100" height="100" viewBox="0 0 100 100" fill="none" xmlns="http://www.w3.org/2000/svg">
<circle cx="50" cy="50" r="50" fill="#8E8C8A"/>
<path d="M48.0001 51.171L43.4141 46.586L40.5861 49.414L48.0001 56.829L61.4141 43.414L58.5861 40.586L48.0001 51.171Z" fill="white"/>
<path d="M73 48C73 35.852 63.151 26 51 26C38.853 26 29 35.852 29 48C29 56.421 33.736 63.735 40.688 67.433L39 86L51 78L63 86L61.312 67.434C68.265 63.736 73 56.421 73 48ZM51 68C39.954 68 31 59.046 31 48C31 36.954 39.954 28 51 28C62.046 28 71 36.954 71 48C71 59.046 62.046 68 51 68Z" fill="white"/>
</svg>
