<svg width="100" height="100" viewBox="0 0 100 100" fill="none" xmlns="http://www.w3.org/2000/svg">
<circle cx="50" cy="50" r="50" fill="#c4c4c4"/>
<path d="M48.4554 18.3869H41.6694C41.0948 18.3869 40.6288 18.8529 40.6288 19.4275V25.6847C40.6288 26.2594 41.0948 26.7253 41.6694 26.7253H48.4554V18.3869Z" fill="#FF473E"/>
<path d="M48.3741 26.7029H54.8256C55.4002 26.7029 55.8662 26.237 55.8662 25.6623V19.4499C55.8662 18.8753 55.4002 18.4093 54.8256 18.4093H48.3741V26.7029Z" fill="#65BBF2"/>
<path d="M14.5018 60.6387V44.1824C14.5018 42.2539 15.6896 40.472 17.6173 39.5084L21.3097 37.6626C21.789 37.423 22.2292 37.1291 22.6189 36.7888L35.8443 25.2367C36.6371 24.4517 37.7822 24.0014 38.986 24.0014H79.5195C82.9589 24.0014 85.7472 26.4174 85.7472 29.3974V60.6386C85.7472 63.6188 82.9589 66.0347 79.5195 66.0347H20.7295C17.2901 66.0348 14.5018 63.619 14.5018 60.6387Z" fill="#DEE1E2"/>
<path d="M20.1764 65.9011C20.1764 60.996 24.1529 57.0195 29.058 57.0195C33.9631 57.0195 37.9396 60.996 37.9396 65.9011H20.1764ZM78.118 65.9011C78.118 60.996 74.1415 57.0195 69.2364 57.0195C64.3313 57.0195 60.3548 60.996 60.3548 65.9011" fill="#9BA5A8"/>
<path d="M35.5444 65.9011C35.5444 69.4835 32.6403 72.3875 29.0579 72.3875C25.4756 72.3875 22.5715 69.4835 22.5715 65.9011C22.5715 62.3188 25.4756 59.4147 29.0579 59.4147C32.6403 59.4147 35.5444 62.3188 35.5444 65.9011ZM69.2363 59.4147C65.654 59.4147 62.7499 62.3188 62.7499 65.9011C62.7499 69.4835 65.654 72.3875 69.2363 72.3875C72.8187 72.3875 75.7227 69.4835 75.7227 65.9011C75.7227 62.3188 72.8187 59.4147 69.2363 59.4147Z" fill="#2B3B47"/>
<path d="M38.6162 28.3526H46.911C47.5166 28.3526 48.0074 28.8436 48.0074 29.449V39.2207C48.0074 39.8262 47.5164 40.3171 46.911 40.3171H28.3909C27.402 40.3171 26.9184 39.1111 27.6334 38.4279L37.8587 28.6563C38.0626 28.4615 38.3341 28.3526 38.6162 28.3526Z" fill="#00B1FF"/>
<path d="M76.6409 33.996V38.8548C76.6409 39.0273 76.5011 39.167 76.3287 39.167H71.6933V43.8024C71.6933 43.9749 71.5535 44.1146 71.3811 44.1146H66.5222C66.3498 44.1146 66.2101 43.9749 66.2101 43.8024V39.167H61.5747C61.4022 39.167 61.2625 39.0273 61.2625 38.8548V33.996C61.2625 33.8236 61.4022 33.6838 61.5747 33.6838H66.2101V29.0484C66.2101 28.876 66.3498 28.7362 66.5222 28.7362H71.3811C71.5535 28.7362 71.6933 28.876 71.6933 29.0484V33.6838H76.3287C76.5011 33.6838 76.6409 33.8236 76.6409 33.996ZM85.7474 49.8641H14.5018V55.59H85.7474V49.8641Z" fill="#FF473E"/>
<path d="M32.0138 65.9011C32.0138 67.5336 30.6905 68.8569 29.058 68.8569C27.4255 68.8569 26.1022 67.5336 26.1022 65.9011C26.1022 64.2686 27.4255 62.9453 29.058 62.9453C30.6905 62.9453 32.0138 64.2686 32.0138 65.9011ZM69.2364 62.9453C67.6039 62.9453 66.2806 64.2686 66.2806 65.9011C66.2806 67.5336 67.6039 68.8569 69.2364 68.8569C70.8689 68.8569 72.1922 67.5336 72.1922 65.9011C72.1922 64.2686 70.8689 62.9453 69.2364 62.9453Z" fill="#9BA5A8"/>
</svg>
