<svg width="45" height="45" viewBox="0 0 45 45" fill="none" xmlns="http://www.w3.org/2000/svg">
<g clip-path="url(#clip0_20_210)">
<path d="M32.4718 0.144757C34.7548 0.24895 36.3329 0.584411 37.7934 1.15202C39.2545 1.71987 40.3611 2.43971 41.4608 3.53939C42.5603 4.63902 43.2801 5.74542 43.8482 7.20678C44.4157 8.66744 44.7511 10.2453 44.8552 12.5282C44.9843 15.3594 45 16.3574 45 22.5C45 28.6426 44.9843 29.6406 44.8552 32.4718C44.7511 34.7546 44.4157 36.3325 43.848 37.7937C43.28 39.2547 42.5602 40.3611 41.4608 41.4605C40.3612 42.5602 39.2546 43.2801 37.7932 43.8481C36.3323 44.4157 34.7545 44.7511 32.4719 44.8551C29.6413 44.9843 28.6436 45 22.5 45C16.3564 45 15.3587 44.9843 12.5282 44.8551C10.2455 44.7511 8.66758 44.4157 7.20642 43.848C5.74532 43.2801 4.63874 42.5602 3.5393 41.4606C2.4397 40.361 1.71979 39.2545 1.15185 37.7932C0.584331 36.3326 0.248943 34.7547 0.144757 32.4719C0.0156618 29.6424 0 28.6452 0 22.5C0 16.3547 0.0156618 15.3576 0.144759 12.5281C0.248943 10.2453 0.584331 8.66744 1.15193 7.20657C1.71973 5.74557 2.43963 4.63905 3.5392 3.53948C4.63874 2.43982 5.74532 1.71994 7.20647 1.15203C8.66693 0.584431 10.2452 0.248951 12.5281 0.144757C15.3577 0.0156604 16.3547 0 22.5 0C28.6453 0 29.6424 0.0156607 32.4718 0.144757ZM22.5 5C16.4242 5 15.495 5.01459 12.756 5.13956C11.0178 5.21889 9.9741 5.44074 9.01777 5.81242C8.20121 6.12979 7.68235 6.46733 7.07483 7.07492C6.46718 7.68257 6.12962 8.20141 5.81243 9.01757C5.44069 9.97436 5.21889 11.0178 5.13956 12.756C5.0146 15.4949 5 16.4243 5 22.5C5 28.5757 5.0146 29.5051 5.13956 32.2439C5.21889 33.9822 5.44069 35.0256 5.81232 35.9821C6.12964 36.7986 6.46725 37.3175 7.07493 37.9252C7.68235 38.5327 8.20121 38.8702 9.01748 39.1875C9.97447 39.5593 11.0179 39.7811 12.7561 39.8603C15.4961 39.9854 16.426 40 22.5 40C28.574 40 29.5039 39.9854 32.244 39.8603C33.9821 39.7811 35.0254 39.5593 35.9822 39.1876C36.7988 38.8702 37.3176 38.5327 37.9252 37.9251C38.5327 37.3176 38.8703 36.7986 39.1876 35.9824C39.5593 35.0256 39.7811 33.9821 39.8604 32.244C39.9854 29.5033 40 28.5731 40 22.5C40 16.4268 39.9854 15.4968 39.8604 12.7561C39.7811 11.0178 39.5593 9.97436 39.1877 9.01796C38.8703 8.20132 38.5327 7.68242 37.9252 7.07483C37.3177 6.46734 36.7988 6.1298 35.9822 5.81244C35.0257 5.44072 33.9822 5.21889 32.2439 5.13956C29.505 5.01459 28.5758 5 22.5 5ZM22.5 34.1667C16.0567 34.1667 10.8333 28.9433 10.8333 22.5C10.8333 16.0567 16.0567 10.8333 22.5 10.8333C28.9433 10.8333 34.1667 16.0567 34.1667 22.5C34.1667 28.9433 28.9433 34.1667 22.5 34.1667ZM22.5 29.1667C26.1819 29.1667 29.1667 26.1819 29.1667 22.5C29.1667 18.8181 26.1819 15.8333 22.5 15.8333C18.8181 15.8333 15.8333 18.8181 15.8333 22.5C15.8333 26.1819 18.8181 29.1667 22.5 29.1667ZM34.1667 13.3333C32.786 13.3333 31.6667 12.214 31.6667 10.8333C31.6667 9.45262 32.786 8.33333 34.1667 8.33333C35.5474 8.33333 36.6667 9.45262 36.6667 10.8333C36.6667 12.214 35.5474 13.3333 34.1667 13.3333Z" fill="white"/>
</g>
<defs>
<clipPath id="clip0_20_210">
<rect width="45" height="45" fill="white"/>
</clipPath>
</defs>
</svg>
