<svg width="45" height="45" viewBox="0 0 45 45" fill="none" xmlns="http://www.w3.org/2000/svg">
<path d="M40.7812 1.05461H4.21875C3.38917 1.04616 2.59013 1.36716 1.99694 1.94716C1.40376 2.52717 1.06489 3.3188 1.05469 4.14836V40.8585C1.06673 41.6868 1.40641 42.4767 1.9994 43.0552C2.59238 43.6337 3.39037 43.9537 4.21875 43.9452H40.7812C41.6109 43.9518 42.4094 43.6297 43.0023 43.0494C43.5951 42.469 43.9342 41.6776 43.9453 40.848V4.13781C43.9305 3.31068 43.5899 2.52283 42.9974 1.94549C42.4049 1.36815 41.6085 1.04799 40.7812 1.05461Z" fill="#0076B2"/>
<path d="M7.40396 17.1316H13.7708V37.6171H7.40396V17.1316ZM10.5891 6.93628C11.3194 6.93628 12.0332 7.15287 12.6403 7.55864C13.2474 7.96441 13.7206 8.54114 13.9999 9.21586C14.2792 9.89058 14.352 10.633 14.2093 11.3491C14.0666 12.0653 13.7147 12.723 13.1981 13.2391C12.6815 13.7553 12.0234 14.1066 11.3071 14.2486C10.5908 14.3906 9.84849 14.317 9.17404 14.0371C8.49958 13.7572 7.9233 13.2835 7.51811 12.676C7.11292 12.0685 6.89701 11.3544 6.89771 10.6242C6.89864 9.64576 7.28796 8.70774 7.98014 8.01622C8.67231 7.32471 9.6107 6.93628 10.5891 6.93628Z" fill="white"/>
<path d="M17.7645 17.1315H23.8677V19.944H23.952C24.8028 18.3338 26.877 16.6358 29.9743 16.6358C36.4219 16.6217 37.6173 20.8651 37.6173 26.367V37.617H31.2505V27.6502C31.2505 25.2772 31.2083 22.2221 27.9423 22.2221C24.6762 22.2221 24.1208 24.8096 24.1208 27.4955V37.617H17.7645V17.1315Z" fill="white"/>
</svg>
