<svg width="129" height="129" viewBox="0 0 129 129" fill="none" xmlns="http://www.w3.org/2000/svg">
<circle cx="64.5" cy="64.5" r="64.5" fill="#C4C4C4"/>
<path d="M61.9962 26.0696H53.1927C52.4472 26.0696 51.8427 26.6741 51.8427 27.4196V35.537C51.8427 36.2825 52.4472 36.887 53.1927 36.887H61.9962V26.0696Z" fill="#FF473E"/>
<path d="M61.8909 36.8579H70.2603C71.0058 36.8579 71.6103 36.2534 71.6103 35.5079V27.4486C71.6103 26.7031 71.0058 26.0986 70.2603 26.0986H61.8909V36.8579Z" fill="#65BBF2"/>
<path d="M17.9484 80.8826V59.5338C17.9484 57.032 19.4892 54.7203 21.9901 53.4703L26.7802 51.0757C27.4019 50.7648 27.9731 50.3837 28.4786 49.9421L45.6359 34.9556C46.6644 33.9373 48.1499 33.353 49.7116 33.353H102.296C106.758 33.353 110.375 36.4873 110.375 40.3533V80.8824C110.375 84.7487 106.758 87.8827 102.296 87.8827H26.0276C21.5656 87.8829 17.9484 84.7488 17.9484 80.8826Z" fill="#DEE1E2"/>
<path d="M25.3099 87.7096C25.3099 81.3462 30.4686 76.1875 36.832 76.1875C43.1954 76.1875 48.3541 81.3462 48.3541 87.7096H25.3099ZM100.477 87.7096C100.477 81.3462 95.3187 76.1875 88.9553 76.1875C82.5919 76.1875 77.4333 81.3462 77.4333 87.7096" fill="#9BA5A8"/>
<path d="M45.2469 87.7095C45.2469 92.3569 41.4794 96.1243 36.832 96.1243C32.1847 96.1243 28.4172 92.3569 28.4172 87.7095C28.4172 83.0621 32.1847 79.2947 36.832 79.2947C41.4794 79.2947 45.2469 83.0621 45.2469 87.7095ZM88.9553 79.2947C84.308 79.2947 80.5405 83.0621 80.5405 87.7095C80.5405 92.3569 84.308 96.1243 88.9553 96.1243C93.6027 96.1243 97.3702 92.3569 97.3702 87.7095C97.3702 83.0621 93.6027 79.2947 88.9553 79.2947Z" fill="#2B3B47"/>
<path d="M49.2318 38.998H59.9926C60.7782 38.998 61.415 39.635 61.415 40.4204V53.0971C61.415 53.8827 60.7781 54.5195 59.9926 54.5195H35.9666C34.6837 54.5195 34.0563 52.955 34.9839 52.0687L48.2491 39.392C48.5137 39.1392 48.8658 38.998 49.2318 38.998Z" fill="#00B1FF"/>
<path d="M98.5612 46.3191V52.6225C98.5612 52.8462 98.3799 53.0275 98.1562 53.0275H92.1427V59.041C92.1427 59.2647 91.9614 59.446 91.7377 59.446H85.4343C85.2106 59.446 85.0293 59.2647 85.0293 59.041V53.0275H79.0158C78.7921 53.0275 78.6108 52.8462 78.6108 52.6225V46.3191C78.6108 46.0954 78.7921 45.9141 79.0158 45.9141H85.0293V39.9006C85.0293 39.6769 85.2106 39.4956 85.4343 39.4956H91.7377C91.9614 39.4956 92.1427 39.6769 92.1427 39.9006V45.9141H98.1562C98.3799 45.9141 98.5612 46.0954 98.5612 46.3191ZM110.375 66.9047H17.9484V74.3329H110.375V66.9047Z" fill="#FF473E"/>
<path d="M40.6666 87.7096C40.6666 89.8274 38.9498 91.5441 36.832 91.5441C34.7142 91.5441 32.9974 89.8274 32.9974 87.7096C32.9974 85.5917 34.7142 83.875 36.832 83.875C38.9498 83.875 40.6666 85.5917 40.6666 87.7096ZM88.9553 83.875C86.8375 83.875 85.1208 85.5917 85.1208 87.7096C85.1208 89.8274 86.8375 91.5441 88.9553 91.5441C91.0731 91.5441 92.7899 89.8274 92.7899 87.7096C92.7899 85.5917 91.0731 83.875 88.9553 83.875Z" fill="#9BA5A8"/>
</svg>
