<svg width="129" height="129" viewBox="0 0 129 129" fill="none" xmlns="http://www.w3.org/2000/svg">
<circle cx="64.5" cy="64.5" r="64.5" fill="#C4C4C4"/>
<g clip-path="url(#clip0_281_10)">
<path d="M65 16C38.4903 16 17 37.4903 17 64C17 90.5097 38.4903 112 65 112C91.5097 112 113 90.5097 113 64C113 37.4903 91.5097 16 65 16ZM47.75 35.0664C48.739 35.0081 49.6329 35.5992 50.3106 36.6484L56.873 49.0937C57.564 50.5684 57.1714 52.1474 56.1406 53.2011L53.1348 56.207C52.9493 56.4612 52.8272 56.7475 52.8242 57.0624C53.977 61.5244 57.4736 65.6402 60.5587 68.4706C63.6437 71.301 66.9594 75.1331 71.2637 76.041C71.7957 76.1894 72.4474 76.2426 72.8282 75.8887L76.3203 72.3321C77.5258 71.4184 79.2696 70.9756 80.5566 71.7227H80.6152L92.4569 78.713C94.1951 79.8025 94.3752 81.9085 93.1307 83.1895L84.9746 91.2813C83.7702 92.5165 82.17 92.9318 80.6154 92.9336C73.7395 92.7276 67.2427 89.3529 61.9064 85.8848C53.1472 79.5126 45.1126 71.6091 40.0684 62.0606C38.1338 58.0566 35.8613 52.9478 36.0782 48.4786C36.0975 46.7974 36.5524 45.1502 37.7364 44.0666L45.8926 35.9103C46.528 35.3697 47.1566 35.1014 47.75 35.0664V35.0664Z" fill="black"/>
</g>
<defs>
<clipPath id="clip0_281_10">
<rect width="96" height="96" fill="white" transform="translate(17 16)"/>
</clipPath>
</defs>
</svg>
